<?xml version="1.0" encoding="UTF-8"?>
<svg id="Layer_1" xmlns="http://www.w3.org/2000/svg" version="1.1" viewBox="0 0 100.5 100.5">
  <!-- Generator: Adobe Illustrator 29.3.1, SVG Export Plug-In . SVG Version: 2.1.0 Build 151)  -->
  <defs>
    <style>
      .st0 {
        fill: #fff;
      }

      .st1 {
        fill: #0a89fc;
      }
    </style>
  </defs>
  <circle class="st1" cx="50.2" cy="50.2" r="50.2"/>
  <path class="st0" d="M87.1,64.3l-23.4,8.2c-.5.2-1,0-1.3-.4l-11.3-16.4c-.5-.6-1.4-.6-1.8,0l-11.3,16.4c-.3.4-.8.5-1.3.4l-23.4-8.2c-1.1-.4-1-1.9.1-2.2l19.3-4.5c.8-.2,1.1-1,.7-1.7l-10-17.5c-.6-1,.5-2.1,1.5-1.6l16,8.3c.6.3,1.4,0,1.6-.7l6.5-22.4c.3-1.1,1.9-1.1,2.2,0l6.5,22.4c.2.7,1,1,1.6.7l16-8.3c1-.5,2.1.6,1.5,1.6l-10,17.5c-.4.7,0,1.5.7,1.7l19.3,4.5c1.1.3,1.2,1.8.1,2.2h0Z"/>
</svg>